# xmcd
#
# Track frame offsets:
# 150
# 18326
# 38767
# 56488
# 74748
# 95700
# 116018
# 133865
# 149001
# 168733
# 189573
# 205192
# 221356
# 239817
# 258456
# 277065
# 293824
# 310482
# 327726
# 340312
#
# Disc length: 4671 seconds
#
#
# Revision: 0
# Processed by: cddbd v1.5.2PL0 Copyright (c) Steve Scherf et al.
# Submitted via: FreeRIP 2.90 
#
DISCID=58123d14
DTITLE=Pop Piano Ballads CD1 - Hage
DYEAR=1900
DGENRE=Ballad
TTITLE0=A Thousand Miles
TTITLE1=Advertising Space
TTITLE2=A Winter shade Of Pale
TTITLE3=Alright
TTITLE4=Angie
TTITLE5=Angels
TTITLE6=Beautiful
TTITLE7=Father and Son
TTITLE8=Der Weg
TTITLE9=Dreamer
TTITLE10=Du Hast Mein Herz Gebrochen
TTITLE11=Eternal Flame
TTITLE12=Everything I Do (I Do It For You)
TTITLE13=First Day Of My Life
TTITLE14=From Sarah With Love
TTITLE15=Für Dich
TTITLE16=Glaub An Mich
TTITLE17=Hard To Say Im Sorry
TTITLE18=Somethin' Stupid
TTITLE19=Yesterday
EXTD=
EXTT0=
EXTT1=
EXTT2=
EXTT3=
EXTT4=
EXTT5=
EXTT6=
EXTT7=
EXTT8=
EXTT9=
EXTT10=
EXTT11=
EXTT12=
EXTT13=
EXTT14=
EXTT15=
EXTT16=
EXTT17=
EXTT18=
EXTT19=
PLAYORDER=
